{"asset":{"generator":"3D Builder","version":"2.0"},"scene":0,"scenes":[{"nodes":[0]}],"nodes":[{"children":[1,2]},{"mesh":0,"matrix":[22.75752067565918,0,0,0,0,-2.7129078716825461E-6,-22.757518768310547,0,0,22.757518768310547,-2.7129078716825461E-6,0,0.072768218815326691,-0.11357872933149338,-0.246641144156456,1]},{"mesh":1,"matrix":[22.75752067565918,0,0,0,0,-2.7129078716825461E-6,-22.757518768310547,0,0,22.757518768310547,-2.7129078716825461E-6,0,0.072768218815326691,-0.11357872933149338,-0.246641144156456,1]}],"meshes":[{"primitives":[{"attributes":{"POSITION":0,"TEXCOORD_0":1},"mode":4,"indices":2,"material":0}]},{"primitives":[{"attributes":{"POSITION":3,"TEXCOORD_0":4},"mode":4,"indices":5,"material":0}]}],"materials":[{"pbrMetallicRoughness":{"baseColorFactor":[1,1,1,1],"metallicFactor":1,"roughnessFactor":1,"baseColorTexture":{"index":0,"texCoord":0},"metallicRoughnessTexture":{"index":1,"texCoord":0}},"alphaMode":"OPAQUE"}],"textures":[{"source":0,"sampler":0},{"source":1,"sampler":0}],"images":[{"uri":"texture_0_6195987693227547908.png"},{"uri":"texture_1_17319628118832143767.png"}],"samplers":[{"magFilter":9729,"wrapS":10497,"wrapT":10497}],"accessors":[{"bufferView":0,"byteOffset":0,"count":3129,"componentType":5126,"type":"VEC3","min":[-0.0045566181652247906,-0.01198336947709322,0.0049908212386071682],"max":[-0.0018384774448350072,-0.009692520834505558,0.006792405154556036]},{"bufferView":1,"byteOffset":0,"count":3129,"componentType":5126,"type":"VEC2"},{"bufferView":2,"byteOffset":0,"count":11184,"componentType":5125,"type":"SCALAR"},{"bufferView":3,"byteOffset":0,"count":65,"componentType":5126,"type":"VEC3","min":[-0.0023603604640811682,-0.011878992430865765,0.0059432578273117542],"max":[-0.0019178470829501748,-0.011870294809341431,0.00659561064094305]},{"bufferView":4,"byteOffset":0,"count":65,"componentType":5126,"type":"VEC2"},{"bufferView":5,"byteOffset":0,"count":276,"componentType":5125,"type":"SCALAR"}],"bufferViews":[{"buffer":0,"byteOffset":0,"byteLength":37548,"byteStride":12,"target":34962},{"buffer":0,"byteOffset":37548,"byteLength":25032,"byteStride":8,"target":34962},{"buffer":0,"byteOffset":62580,"byteLength":44736,"target":34963},{"buffer":0,"byteOffset":107316,"byteLength":780,"byteStride":12,"target":34962},{"buffer":0,"byteOffset":108096,"byteLength":520,"byteStride":8,"target":34962},{"buffer":0,"byteOffset":108616,"byteLength":1104,"target":34963}],"buffers":[{"byteLength":109720,"uri":"microwave.bin"}]}