{"asset":{"generator":"3D Builder","version":"2.0"},"scene":0,"scenes":[{"nodes":[0]}],"nodes":[{"children":[1,2,3,4,5]},{"mesh":0,"matrix":[39.370079040527344,0,0,0,0,-4.6932796067267191E-6,-39.370075225830078,0,0,39.370075225830078,-4.6932796067267191E-6,0,0,-0.0054319477640092373,6.4753868933564718E-10,1]},{"mesh":1,"matrix":[39.370079040527344,0,0,0,0,-4.6932796067267191E-6,-39.370075225830078,0,0,39.370075225830078,-4.6932796067267191E-6,0,0,-0.0054319477640092373,6.4753868933564718E-10,1]},{"mesh":2,"matrix":[39.370079040527344,0,0,0,0,-4.6932796067267191E-6,-39.370075225830078,0,0,39.370075225830078,-4.6932796067267191E-6,0,0,-0.0054319477640092373,6.4753868933564718E-10,1]},{"mesh":3,"matrix":[39.370079040527344,0,0,0,0,-4.6932796067267191E-6,-39.370075225830078,0,0,39.370075225830078,-4.6932796067267191E-6,0,0,-0.0054319477640092373,6.4753868933564718E-10,1]},{"mesh":4,"matrix":[39.370079040527344,0,0,0,0,-4.6932796067267191E-6,-39.370075225830078,0,0,39.370075225830078,-4.6932796067267191E-6,0,0,-0.0054319477640092373,6.4753868933564718E-10,1]}],"meshes":[{"primitives":[{"attributes":{"POSITION":0,"TEXCOORD_0":1},"mode":4,"indices":2,"material":0}]},{"primitives":[{"attributes":{"POSITION":3,"TEXCOORD_0":4},"mode":4,"indices":5,"material":0}]},{"primitives":[{"attributes":{"POSITION":6,"TEXCOORD_0":7},"mode":4,"indices":8,"material":0}]},{"primitives":[{"attributes":{"POSITION":9,"TEXCOORD_0":10},"mode":4,"indices":11,"material":0}]},{"primitives":[{"attributes":{"POSITION":12,"TEXCOORD_0":13},"mode":4,"indices":14,"material":0}]}],"materials":[{"pbrMetallicRoughness":{"baseColorFactor":[1,1,1,1],"metallicFactor":1,"roughnessFactor":1,"baseColorTexture":{"index":0,"texCoord":0},"metallicRoughnessTexture":{"index":1,"texCoord":0}},"alphaMode":"OPAQUE"}],"textures":[{"source":0,"sampler":0},{"source":1,"sampler":0}],"images":[{"uri":"texture_0_6195987693227547908.png"},{"uri":"texture_1_17319628118832143767.png"}],"samplers":[{"magFilter":9729,"wrapS":10497,"wrapT":10497}],"accessors":[{"bufferView":0,"byteOffset":0,"count":15961,"componentType":5126,"type":"VEC3","min":[-0.012362579815089703,-0.012351623736321926,0.022168707102537155],"max":[0.012350191362202168,0.012349843047559261,0.032433662563562393]},{"bufferView":1,"byteOffset":0,"count":15961,"componentType":5126,"type":"VEC2"},{"bufferView":2,"byteOffset":0,"count":59670,"componentType":5125,"type":"SCALAR"},{"bufferView":3,"byteOffset":0,"count":1363,"componentType":5126,"type":"VEC3","min":[-0.0062804799526929855,-0.006280828732997179,0.0041824220679700375],"max":[0.0062680910341441631,0.0062677427195012569,0.0044085225090384483]},{"bufferView":4,"byteOffset":0,"count":1363,"componentType":5126,"type":"VEC2"},{"bufferView":5,"byteOffset":0,"count":5724,"componentType":5125,"type":"SCALAR"},{"bufferView":6,"byteOffset":0,"count":1222,"componentType":5126,"type":"VEC3","min":[-0.0024028588086366653,-0.0023579865228384733,0.018539797514677048],"max":[0.002390469191595912,0.002424036618322134,0.018777200952172279]},{"bufferView":7,"byteOffset":0,"count":1222,"componentType":5126,"type":"VEC2"},{"bufferView":8,"byteOffset":0,"count":5688,"componentType":5125,"type":"SCALAR"},{"bufferView":9,"byteOffset":0,"count":1282,"componentType":5126,"type":"VEC3","min":[-0.0037368510384112597,-0.0037371991202235222,0.01373516209423542],"max":[0.0037244614213705063,0.0037241133395582438,0.01397256925702095]},{"bufferView":10,"byteOffset":0,"count":1282,"componentType":5126,"type":"VEC2"},{"bufferView":11,"byteOffset":0,"count":5694,"componentType":5125,"type":"SCALAR"},{"bufferView":12,"byteOffset":0,"count":1348,"componentType":5126,"type":"VEC3","min":[-0.0049690976738929749,-0.0049468362703919411,0.00838788878172636],"max":[0.0049680145457386971,0.0049902754835784435,0.0086139896884560585]},{"bufferView":13,"byteOffset":0,"count":1348,"componentType":5126,"type":"VEC2"},{"bufferView":14,"byteOffset":0,"count":5730,"componentType":5125,"type":"SCALAR"}],"bufferViews":[{"buffer":0,"byteOffset":0,"byteLength":191532,"byteStride":12,"target":34962},{"buffer":0,"byteOffset":191532,"byteLength":127688,"byteStride":8,"target":34962},{"buffer":0,"byteOffset":319220,"byteLength":238680,"target":34963},{"buffer":0,"byteOffset":557900,"byteLength":16356,"byteStride":12,"target":34962},{"buffer":0,"byteOffset":574256,"byteLength":10904,"byteStride":8,"target":34962},{"buffer":0,"byteOffset":585160,"byteLength":22896,"target":34963},{"buffer":0,"byteOffset":608056,"byteLength":14664,"byteStride":12,"target":34962},{"buffer":0,"byteOffset":622720,"byteLength":9776,"byteStride":8,"target":34962},{"buffer":0,"byteOffset":632496,"byteLength":22752,"target":34963},{"buffer":0,"byteOffset":655248,"byteLength":15384,"byteStride":12,"target":34962},{"buffer":0,"byteOffset":670632,"byteLength":10256,"byteStride":8,"target":34962},{"buffer":0,"byteOffset":680888,"byteLength":22776,"target":34963},{"buffer":0,"byteOffset":703664,"byteLength":16176,"byteStride":12,"target":34962},{"buffer":0,"byteOffset":719840,"byteLength":10784,"byteStride":8,"target":34962},{"buffer":0,"byteOffset":730624,"byteLength":22920,"target":34963}],"buffers":[{"byteLength":753544,"uri":"Flying saucer.bin"}]}