{"asset":{"generator":"3D Builder","version":"2.0"},"scene":0,"scenes":[{"nodes":[0]}],"nodes":[{"mesh":0,"matrix":[1,0,0,0,0,-1.1920928955078125E-7,-0.99999988079071045,0,0,0.99999988079071045,-1.1920928955078125E-7,0,0,0,0,1]}],"meshes":[{"primitives":[{"attributes":{"POSITION":0,"TEXCOORD_0":3},"mode":4,"indices":6,"material":0},{"attributes":{"POSITION":1,"TEXCOORD_0":4},"mode":4,"indices":7,"material":0},{"attributes":{"POSITION":2,"TEXCOORD_0":5},"mode":4,"indices":8,"material":0}]}],"materials":[{"pbrMetallicRoughness":{"baseColorFactor":[1,1,1,1],"metallicFactor":0,"roughnessFactor":1,"baseColorTexture":{"index":0,"texCoord":0}},"alphaMode":"OPAQUE"}],"textures":[{"source":0,"sampler":0}],"images":[{"uri":"M-FF_iOS_HERO_Tony_Stark_Iron_Man_Civil_War_Body_D.png"}],"samplers":[{"magFilter":9729,"wrapS":10497,"wrapT":10497}],"accessors":[{"bufferView":0,"byteOffset":0,"count":429,"componentType":5126,"type":"VEC3","min":[-0.011873312294483185,0.0064573260024189949,0.02594757080078125],"max":[0.02975284680724144,0.011420056223869324,0.030586205422878265]},{"bufferView":0,"byteOffset":5148,"count":436,"componentType":5126,"type":"VEC3","min":[-0.009179258719086647,0.0071257753297686577,0.0245701614767313],"max":[0.027058795094490051,0.011561848223209381,0.030039289966225624]},{"bufferView":0,"byteOffset":10380,"count":1795,"componentType":5126,"type":"VEC3","min":[-0.00693083880469203,0.0030543117318302393,0.00060726614901795983],"max":[0.024790119379758835,0.014276157133281231,0.051227103918790817]},{"bufferView":1,"byteOffset":0,"count":429,"componentType":5126,"type":"VEC2"},{"bufferView":1,"byteOffset":3432,"count":436,"componentType":5126,"type":"VEC2"},{"bufferView":1,"byteOffset":6920,"count":1795,"componentType":5126,"type":"VEC2"},{"bufferView":2,"byteOffset":0,"count":1260,"componentType":5125,"type":"SCALAR"},{"bufferView":2,"byteOffset":5040,"count":1242,"componentType":5125,"type":"SCALAR"},{"bufferView":2,"byteOffset":10008,"count":6834,"componentType":5125,"type":"SCALAR"}],"bufferViews":[{"buffer":0,"byteOffset":0,"byteLength":31920,"byteStride":12,"target":34962},{"buffer":0,"byteOffset":31920,"byteLength":21280,"byteStride":8,"target":34962},{"buffer":0,"byteOffset":53200,"byteLength":37344,"target":34963}],"buffers":[{"byteLength":90544,"uri":"M-FF_iOS_HERO_Tony_Stark_Iron_Man_Civil_War.bin"}]}